<svg xmlns="http://www.w3.org/2000/svg" xmlns:xlink="http://www.w3.org/1999/xlink" viewBox="0 0 154.5 68.34974358974358" height="68.34974358974358" width="154.5" data-background-color="#000000" preserveAspectRatio="xMidYMid meet" id="tight-bounds"><g><svg viewBox="0 0 154.5 68.34974358974358" height="68.34974358974358" width="154.5"><g><svg viewBox="0 0 154.5 68.34974358974358" height="68.34974358974358" width="154.5"><g id="textblocktransform"><svg viewBox="0 0 154.5 68.34974358974358" height="68.34974358974358" width="154.5" id="textblock"><g><svg viewBox="0 0 154.5 68.34974358974358" height="68.34974358974358" width="154.5"><g transform="matrix(1,0,0,1,0,0)"><svg width="154.5" viewBox="3.3399999141693115 -31.350000381469727 71.41000366210938 31.59000015258789" height="68.34974358974358" data-palette-color="url(#131400e1-20e4-43d7-9996-4e4d3dc87ed5)"/></g></svg></g></svg></g></svg></g></svg><mask id="93ba8301-4c3c-457b-891f-1b3e1de0a038"><svg xmlns:xlink="http://www.w3.org/1999/xlink" viewBox="0 0 154.5 68.34974358974358" height="68.34974358974358" width="154.5" data-background-color="#000000" preserveAspectRatio="xMidYMid meet" id="SvgjsSvg1296"><g><svg viewBox="0 0 154.5 68.34974358974358" height="68.34974358974358" width="154.5"><g><svg viewBox="0 0 154.5 68.34974358974358" height="68.34974358974358" width="154.5"><g id="SvgjsG1295"><svg viewBox="0 0 154.5 68.34974358974358" height="68.34974358974358" width="154.5" id="SvgjsSvg1294"><g><svg viewBox="0 0 154.5 68.34974358974358" height="68.34974358974358" width="154.5"><g transform="matrix(1,0,0,1,0,0)"><svg width="154.5" viewBox="3.3399999141693115 -31.350000381469727 71.41000366210938 31.59000015258789" height="68.34974358974358" data-palette-color="url(#131400e1-20e4-43d7-9996-4e4d3dc87ed5)"><path d="M27.03 0L24.71-26.83 18.04-10.69 15.23-10.69 8.33-26.88 6.23 0 3.34 0 5.79-31.35 9.25-31.35 16.63-14.21 23.8-31.35 27.25-31.35 29.91 0 27.03 0ZM35.91-1.68L36.91-4.08Q38.13-3.39 40.07-2.87 42.01-2.34 43.8-2.34L43.8-2.34Q46.04-2.34 47.42-3.31 48.8-4.27 48.8-6.47L48.8-6.47Q48.8-8.18 48.02-9.02 47.24-9.86 45.6-10.38L45.6-10.38 41.94-11.52Q40.48-11.99 39.54-12.44 38.6-12.89 37.79-13.61 36.98-14.33 36.62-15.39 36.25-16.46 36.25-17.94L36.25-17.94Q36.25-21.22 38.5-22.81 40.74-24.41 44.16-24.41 47.58-24.41 50.66-23L50.66-23 49.73-20.65Q47.21-21.85 44.38-21.85L44.38-21.85Q42.11-21.85 40.67-20.89 39.23-19.92 39.23-17.82L39.23-17.82Q39.23-16.26 40.02-15.63 40.82-14.99 42.87-14.33L42.87-14.33 46.46-13.18Q48.44-12.55 49.55-11.8 50.66-11.06 51.25-9.8 51.85-8.54 51.85-6.62L51.85-6.62Q51.85-4.79 51.22-3.42 50.58-2.05 49.45-1.27 48.31-0.49 46.95-0.12 45.58 0.24 43.94 0.24L43.94 0.24Q39.89 0.24 35.91-1.68L35.91-1.68ZM66.11-21.85L66.11-21.85Q63.03-21.85 61.4-19.71 59.76-17.58 59.47-13.65L59.47-13.65 71.85-13.65 71.85-14.87Q71.85-18.07 70.3-19.96 68.75-21.85 66.11-21.85ZM66.52-2.34L66.52-2.34Q70.28-2.34 73.36-4.3L73.36-4.3 74.31-1.83Q72.65-0.81 70.6-0.28 68.55 0.24 66.69 0.24L66.69 0.24Q61.76 0.24 59.05-2.73 56.34-5.71 56.34-12.11L56.34-12.11Q56.34-18.24 58.98-21.33 61.62-24.41 66.08-24.41L66.08-24.41Q70.11-24.41 72.43-21.78 74.75-19.14 74.75-14.75L74.75-14.75Q74.75-13.75 74.56-11.45L74.56-11.45 59.47-11.45Q59.49-9.28 59.91-7.63 60.32-5.98 60.96-4.99 61.59-4 62.53-3.39 63.47-2.78 64.42-2.56 65.38-2.34 66.52-2.34Z" opacity="1" transform="matrix(1,0,0,1,0,0)" fill="white" class="wordmark-text-0" id="SvgjsPath1293"/></svg></g></svg></g></svg></g></svg></g></svg></g><defs><mask/></defs></svg></mask><linearGradient x1="0.054" x2="0.941" y1="0.5" y2="0.5" id="131400e1-20e4-43d7-9996-4e4d3dc87ed5"><stop stop-color="#0f3054" offset="0"/><stop stop-color="#3b8dcb" offset="0.498"/><stop stop-color="#0f3054" offset="1"/></linearGradient><rect width="154.5" height="68.34974358974358" fill="#ffffff" mask="url(#93ba8301-4c3c-457b-891f-1b3e1de0a038)" data-fill-palette-color="primary"/></g><defs><mask/></defs></svg>